<?xml version="1.0" encoding="UTF-8"?>
<svg id="_图层_1" data-name="图层 1" xmlns="http://www.w3.org/2000/svg" xmlns:xlink="http://www.w3.org/1999/xlink" viewBox="0 0 1023.97 1023.69">
  <defs>
    <style>
      .cls-1 {
        fill: url(#_未命名的渐变_65);
      }

      .cls-1, .cls-2 {
        stroke-width: 0px;
      }

      .cls-2 {
        fill: url(#_未命名的渐变_64);
      }
    </style>
    <linearGradient id="_未命名的渐变_64" data-name="未命名的渐变 64" x1="22.97" y1="362.33" x2="1046.32" y2="362.33" gradientTransform="translate(-72.32 152.92) rotate(-17.03)" gradientUnits="userSpaceOnUse">
      <stop offset="0" stop-color="#d9a3a8" stop-opacity=".7"/>
      <stop offset=".53" stop-color="#77a8ca"/>
      <stop offset="1" stop-color="#4da5d5"/>
    </linearGradient>
    <linearGradient id="_未命名的渐变_65" data-name="未命名的渐变 65" x1="-11.7" y1="668.34" x2="1258.13" y2="668.34" gradientTransform="translate(-61.29 39.19) rotate(-5.45)" gradientUnits="userSpaceOnUse">
      <stop offset="0" stop-color="#4caee3"/>
      <stop offset=".53" stop-color="#7aaacb" stop-opacity=".93"/>
      <stop offset="1" stop-color="#d9a3a8" stop-opacity=".7"/>
    </linearGradient>
  </defs>
  <path class="cls-2" d="m1015.86,153.87c2.24,3.68,10.41,18.01,7.46,15.24-.23-.21-8.09-8.12-13.04-13.14-2.76-2.8-5.72-5.46-8.24-7.97-5.54-5.54-16.32-16.03-59.2-43.49-22.23-14.23-86.37-51.54-173.24-55.93-30.4-1.54-110.52-4.48-190.58,45.44-17.11,10.67-124.45,77.61-132.09,189.66-1,14.69-4.69,68.89,28.55,113.2,15.15,20.19,32.29,32.65,65.1,52.27,58.4,34.93,133.61,52.26,90.57,54.28-12.17.57-41.66.77-116.75.46-49.25-.2-88.88-.69-110.86,6.76-41.55,14.08-59.12,46.53-75,79.86-31.43,65.93-53.42,179.38-56.84,136.61-1.59-19.89-3.1-35-6.75-59.69-.64-4.31-6.1-64.17-20.46-110.95-18.16-59.17-39.4-90.09-51.89-107.36-41.35-57.16-97.57-83.07-127.01-100.41-31.96-18.83-85.7-41.53-57.8-39.52,5.81.42,116.46,12.86,157.87,13.6,13.89.25,60.7,2.92,79.07-4.8,25.39-10.66,38.94-29.9,57.02-66.19,16.63-33.39,20.48-44.79,37.83-70.08,35.33-51.5,94.2-109.15,181.46-143.51,27.7-10.91,181.54-68.32,312.97-17.54,53.78,20.78,88.14,40.59,121.57,68.5,18.45,15.4,32.71,28.8,46.47,44.86,6.24,7.28,11.43,15.89,13.83,19.84Z"/>
  <path class="cls-1" d="m946.4,249.34c-2.09-1.78-5.33-.52-5.75,2.2-20.2,131.76-48.6,233.88-80.56,297.95-19.95,40-58.65,107.74-118.25,177.7-47.21,55.42-119.82,127.44-237.01,175.47-36.61,15.01-159.43,65.35-295.32,28.16C81.36,895.75,5.01,803.05.77,807.92c-5.07,5.82,41.07,70.63,114.84,119.54,106,70.3,206.14,89.62,260.2,92.53,52.88,2.84,146.48,13.89,283.3-23.93,61.19-16.91,140.88-54.06,210.98-126,29.7-30.47,99.95-112.93,135.33-219.71,15.85-47.83,21.88-115.29,16.77-171.02-6.3-68.75-17.36-101.32-26.96-129.62-12.21-35.99-31.1-85.28-48.84-100.37Z"/>
</svg>